<?xml version="1.0" standalone="no"?><!DOCTYPE svg PUBLIC "-//W3C//DTD SVG 1.1//EN" "http://www.w3.org/Graphics/SVG/1.1/DTD/svg11.dtd"><svg t="1711811188311" class="icon" viewBox="0 0 1024 1024" version="1.1" xmlns="http://www.w3.org/2000/svg" p-id="7497" xmlns:xlink="http://www.w3.org/1999/xlink" width="200" height="200"><path d="M183.515429 492.495238v67.657143l87.161904 0.024381 150.869334 55.734857h159.744a37.010286 37.010286 0 0 1 0 74.020571h-135.216762a12.361143 12.361143 0 0 0 0 24.697905h156.086857c10.630095 0 21.138286-2.267429 30.817524-6.704762l190.634666-87.064381a64.26819 64.26819 0 0 1 84.016762 29.354667 61.293714 61.293714 0 0 1-27.233524 82.578286L519.509333 913.310476a123.66019 123.66019 0 0 1-96.475428 6.022095l-197.388191-69.680761H183.515429v62.464H109.714286V492.495238h73.801143zM527.969524 97.52381C704.609524 97.52381 847.823238 241.200762 847.823238 418.425905c0 56.417524-14.506667 109.470476-40.009143 155.526095l-4.486095 1.926095-137.020952 62.585905-0.780191-4.071619a86.186667 86.186667 0 0 0-84.114286-67.852191l-151.161904-0.02438-150.796191-55.710477H232.71619v-67.705904h-23.649523a326.460952 326.460952 0 0 1-0.926477-24.673524C208.14019 241.176381 351.329524 97.52381 527.969524 97.52381z m30.963809 121.904761h-73.142857l-0.048762 28.476953a80.457143 80.457143 0 0 0-20.723809 11.385905c-16.335238 12.55619-24.502857 30.061714-24.502857 52.49219 0 11.995429 1.926095 22.381714 5.753904 31.158857 3.82781 8.777143 9.728 16.579048 17.676191 23.332572 7.94819 6.777905 19.846095 13.799619 35.742476 21.016381 17.554286 7.875048 28.355048 13.116952 32.426667 15.652571 4.047238 2.56 6.997333 5.095619 8.825904 7.582476a14.384762 14.384762 0 0 1 2.755048 8.777143 15.62819 15.62819 0 0 1-6.826667 13.068191c-4.559238 3.388952-11.727238 5.071238-21.504 5.071238-11.337143 0-23.79581-1.80419-37.351619-5.412572a195.632762 195.632762 0 0 1-31.573333-11.385905L438.857143 416.963048v58.660571c11.897905 5.656381 23.332571 9.630476 34.328381 11.922286 3.85219 0.78019 8.045714 1.462857 12.55619 1.950476l0.048762 22.503619h73.142857v-28.379429a96.792381 96.792381 0 0 0 5.924572-2.438095c14.433524-6.485333 25.502476-15.60381 33.158095-27.306666 7.68-11.727238 11.50781-25.136762 11.50781-40.252953 0-16.457143-4.071619-30.086095-12.239239-40.911238-8.167619-10.849524-22.77181-20.967619-43.763809-30.427429-21.894095-9.99619-35.303619-16.896-40.228572-20.675047-4.973714-3.779048-7.43619-8.045714-7.43619-12.824381 0-4.437333 1.950476-8.167619 5.851429-11.166476 3.876571-2.998857 10.093714-4.510476 18.651428-4.510476 14.726095 0 31.890286 4.144762 51.516953 12.385523l7.484952 3.291429L609.52381 257.950476a202.849524 202.849524 0 0 0-50.614858-15.36V219.428571z" p-id="7498"></path></svg>